<?xml version="1.0" standalone="no"?>
<!DOCTYPE svg PUBLIC "-//W3C//DTD SVG 20010904//EN"
 "http://www.w3.org/TR/2001/REC-SVG-20010904/DTD/svg10.dtd">
<svg version="1.0" xmlns="http://www.w3.org/2000/svg"
 width="1102.000000pt" height="1102.000000pt" viewBox="0 0 1102.000000 1102.000000"
 preserveAspectRatio="xMidYMid meet">
<metadata>
Created by potrace 1.11, written by Peter Selinger 2001-2013
</metadata>
<g transform="translate(0.000000,1102.000000) scale(0.100000,-0.100000)"
fill="#000000" stroke="none">
<path d="M1279 10966 c-2 -2 -29 -7 -59 -10 -30 -3 -66 -8 -80 -11 -26 -6 -52
-12 -85 -19 -11 -3 -56 -17 -100 -31 -70 -24 -120 -47 -250 -113 -103 -54
-299 -221 -392 -337 -143 -177 -263 -443 -289 -640 -3 -27 -8 -54 -11 -58 -3
-5 -6 -65 -8 -135 -10 -397 141 -774 420 -1047 85 -83 199 -172 275 -214 86
-47 187 -92 265 -119 81 -27 123 -37 250 -60 84 -15 425 -5 454 13 3 1 23 6
43 9 75 12 236 70 336 122 174 90 302 193 447 359 129 148 255 421 291 629 9
50 18 94 20 98 2 3 269 6 592 6 l589 0 -1 -1809 -1 -1809 273 -272 c149 -150
272 -276 272 -279 0 -4 -26 -17 -57 -29 -77 -31 -295 -139 -358 -178 -27 -17
-63 -39 -80 -48 -45 -26 -203 -141 -270 -197 -159 -134 -365 -357 -482 -522
-119 -169 -248 -413 -312 -590 -12 -33 -26 -69 -31 -80 -18 -42 -77 -255 -86
-315 -3 -19 -7 -43 -10 -52 -10 -35 -34 -209 -39 -283 -2 -22 -3 -46 -4 -52
-1 -10 -132 -13 -619 -13 l-619 0 1 813 c1 446 5 818 9 825 5 6 23 12 41 12
82 0 359 90 446 145 19 12 37 22 40 22 10 -1 95 58 176 120 269 207 479 564
518 883 3 25 8 56 11 70 6 29 6 252 1 292 -72 507 -342 895 -771 1108 -141 70
-235 103 -355 124 -19 3 -46 9 -60 12 -14 3 -95 7 -180 9 -135 3 -207 -2 -285
-18 -11 -2 -37 -7 -58 -11 -121 -22 -335 -114 -460 -198 -408 -272 -650 -738
-631 -1213 5 -124 7 -141 28 -250 38 -196 148 -426 280 -590 80 -99 286 -285
315 -285 5 0 11 -3 13 -7 10 -25 239 -134 349 -167 47 -14 125 -34 173 -44
l87 -17 2 -974 2 -975 768 1 c422 0 769 -3 772 -7 3 -4 7 -38 10 -76 3 -38 7
-80 10 -94 3 -14 7 -45 10 -70 3 -25 12 -79 21 -120 84 -412 259 -794 510
-1116 90 -116 109 -137 219 -248 114 -114 149 -146 255 -226 47 -36 87 -67 90
-70 21 -23 235 -152 331 -201 157 -78 375 -166 459 -184 8 -2 50 -13 92 -25
86 -23 89 -24 209 -45 111 -19 136 -23 244 -32 111 -9 369 -9 450 1 33 4 76 9
95 11 48 5 110 14 140 20 14 2 48 9 76 15 28 6 62 13 76 15 13 3 72 19 129 36
890 264 1582 960 1828 1840 17 58 32 118 35 132 3 15 7 35 10 45 3 9 7 33 10
52 3 19 8 46 11 60 7 35 18 119 31 250 1 14 2 28 3 31 1 3 355 6 789 7 433 1
797 1 810 2 l22 0 0 1475 0 1475 25 0 c30 0 21 -2 97 17 35 8 72 16 82 19 95
19 277 99 387 169 424 272 669 731 653 1225 -2 69 -6 136 -8 150 -41 239 -100
398 -214 575 -105 165 -269 328 -428 428 -103 64 -310 155 -398 173 -166 35
-190 38 -346 39 -158 0 -213 -6 -335 -35 -448 -106 -814 -424 -982 -855 -32
-80 -57 -164 -67 -220 -3 -16 -8 -41 -11 -55 -9 -43 -18 -162 -18 -240 -1
-316 108 -626 306 -875 45 -56 226 -235 238 -235 4 0 14 -7 23 -15 24 -25 171
-113 239 -144 89 -41 234 -91 262 -91 13 0 26 -4 29 -8 2 -4 20 -9 38 -11 18
-1 51 -5 73 -9 l40 -7 0 -1315 0 -1315 -653 -2 c-504 -2 -652 1 -653 10 -1 7
-2 26 -4 42 -8 97 -16 156 -24 200 -5 28 -12 70 -16 94 -3 24 -18 87 -31 140
-14 53 -27 103 -29 111 -21 89 -103 296 -174 439 -236 473 -578 838 -1058
1129 -59 36 -266 136 -302 147 -22 7 0 30 250 281 l274 274 0 1207 0 1207 97
17 c470 85 872 415 1051 864 52 130 74 221 93 375 17 149 5 316 -37 490 -53
219 -181 453 -339 618 -124 130 -271 236 -424 307 -86 41 -224 89 -284 100
-15 3 -38 7 -52 10 -138 28 -385 28 -535 0 -379 -71 -740 -328 -937 -666 -76
-130 -144 -300 -164 -413 -3 -16 -6 -32 -8 -35 -10 -17 -21 -151 -21 -266 0
-117 6 -196 20 -266 3 -13 8 -37 11 -54 12 -68 72 -227 121 -323 106 -208 271
-393 469 -527 149 -101 338 -179 509 -210 50 -10 95 -19 102 -21 9 -2 12 -261
12 -1142 l0 -1138 -283 -283 -283 -282 -59 15 c-33 8 -77 18 -99 21 -22 4 -59
11 -82 16 -24 5 -46 8 -50 7 -5 -1 -24 2 -43 5 -194 37 -581 26 -840 -23
l-105 -20 -287 287 -288 288 -2 1904 -3 1904 -742 1 c-408 1 -743 3 -746 6 -3
3 -7 23 -10 45 -14 100 -21 126 -52 221 -98 297 -273 535 -523 714 -70 50
-244 144 -317 171 -45 17 -152 49 -180 54 -16 2 -41 7 -55 10 -14 3 -38 8 -55
11 -36 7 -330 16 -336 10z m253 -931 c170 -43 306 -180 352 -357 29 -108 4
-269 -56 -367 -165 -268 -537 -316 -759 -97 -201 198 -196 517 9 707 81 74
170 114 297 132 37 5 95 -2 157 -18z m5488 -5 c334 -98 457 -529 225 -788
-189 -210 -511 -223 -708 -28 -226 225 -189 591 78 761 122 79 260 97 405 55z
m2673 -2634 c184 -33 338 -172 390 -352 18 -62 19 -188 2 -252 -73 -273 -356
-429 -622 -343 -163 52 -297 199 -330 361 -9 42 -9 175 -1 210 34 134 130 260
248 325 89 48 217 69 313 51z m-8188 -1000 c168 -25 331 -180 379 -362 11 -44
14 -184 4 -224 -45 -178 -176 -314 -353 -365 -71 -21 -216 -16 -288 9 -108 38
-222 137 -272 236 -42 83 -55 145 -52 249 3 91 6 103 45 182 60 122 133 194
248 245 90 40 166 48 289 30z m4100 -2360 c50 -3 99 -7 110 -10 11 -2 40 -7
65 -11 70 -12 78 -13 161 -35 274 -71 562 -206 824 -388 85 -58 227 -163 235
-173 3 -3 34 -30 70 -60 103 -85 272 -247 390 -375 56 -60 210 -250 210 -259
0 -3 -26 -38 -57 -78 -151 -189 -347 -391 -532 -547 -29 -25 -70 -60 -90 -77
-20 -18 -39 -33 -42 -33 -3 0 -17 -9 -30 -21 -38 -33 -204 -148 -298 -205 -84
-52 -324 -177 -345 -180 -6 -1 -31 -11 -56 -22 -80 -37 -244 -88 -365 -113
-84 -18 -84 -18 -140 -26 -64 -10 -426 -10 -485 0 -74 12 -104 18 -120 22 -8
2 -29 7 -45 9 -93 16 -356 108 -476 166 -101 49 -207 107 -257 141 -24 16 -45
29 -48 29 -6 0 -157 101 -164 109 -3 4 -17 14 -32 23 -35 23 -179 139 -265
213 -159 139 -382 373 -500 524 l-50 65 55 70 c169 220 448 494 692 682 443
340 922 540 1345 561 66 3 122 7 123 9 2 1 9 1 15 -1 7 -2 53 -6 102 -9z"/>
<path d="M4680 3527 c-192 -97 -335 -189 -520 -336 -136 -108 -157 -128 -334
-304 l-159 -158 24 -27 c72 -82 277 -283 363 -354 54 -46 103 -88 110 -93 36
-33 206 -152 291 -206 103 -65 346 -192 353 -185 2 3 -16 22 -39 43 -153 136
-272 315 -323 483 -9 30 -21 69 -26 85 -23 76 -33 301 -17 411 35 251 187 513
397 683 43 35 10 23 -120 -42z"/>
<path d="M5329 3484 c-111 -21 -245 -81 -336 -153 -18 -14 -31 -26 -29 -28 1
-1 24 6 52 16 131 50 283 -19 332 -151 47 -125 -9 -267 -127 -325 -47 -22 -56
-24 -121 -25 -72 -1 -134 28 -187 85 -65 70 -84 164 -53 256 22 66 5 52 -48
-37 -184 -312 -137 -688 117 -943 88 -87 183 -147 296 -184 100 -34 128 -38
240 -39 107 -1 159 6 240 32 262 86 445 279 516 547 22 84 31 233 18 295 -4
19 -10 49 -12 65 -19 113 -106 273 -200 369 -114 115 -273 200 -417 222 -77
12 -212 11 -281 -2z"/>
</g>
</svg>
